<mxfile host="Electron" agent="Mozilla/5.0 (Windows NT 10.0; Win64; x64) AppleWebKit/537.36 (KHTML, like Gecko) draw.io/24.7.8 Chrome/128.0.6613.36 Electron/32.0.1 Safari/537.36" version="24.7.8">
  <diagram id="ybnBNx3KCF5k_87hsMXN" name="Sayfa -1">
    <mxGraphModel dx="1383" dy="797" grid="0" gridSize="10" guides="1" tooltips="1" connect="1" arrows="1" fold="1" page="1" pageScale="1" pageWidth="3300" pageHeight="4681" math="0" shadow="0">
      <root>
        <mxCell id="0" />
        <mxCell id="1" parent="0" />
        <mxCell id="mdJNWHgWcDSAHnfaOqPS-29" value="" style="rounded=1;whiteSpace=wrap;html=1;fillColor=#333333;strokeColor=#000000;strokeWidth=1;" vertex="1" parent="1">
          <mxGeometry x="420" y="820" width="320" height="140" as="geometry" />
        </mxCell>
        <mxCell id="mdJNWHgWcDSAHnfaOqPS-56" style="edgeStyle=orthogonalEdgeStyle;rounded=0;orthogonalLoop=1;jettySize=auto;html=1;exitX=0;exitY=0.5;exitDx=0;exitDy=0;verticalAlign=middle;horizontal=1;entryX=0;entryY=0.5;entryDx=0;entryDy=0;" edge="1" parent="1" target="u2cS-JGJET43mBC9__E9-79">
          <mxGeometry relative="1" as="geometry">
            <mxPoint x="650" y="1000" as="sourcePoint" />
            <Array as="points">
              <mxPoint x="650" y="1030" />
            </Array>
          </mxGeometry>
        </mxCell>
        <mxCell id="u2cS-JGJET43mBC9__E9-79" value="&lt;font face=&quot;Comic Sans MS&quot;&gt;&lt;span style=&quot;font-size: 8px&quot;&gt;PIN-C4&lt;/span&gt;&lt;/font&gt;" style="rounded=1;whiteSpace=wrap;html=1;strokeWidth=1;fontSize=5;fillColor=#fff2cc;gradientColor=#ffd966;" parent="1" vertex="1">
          <mxGeometry x="800" y="1020" width="50" height="20" as="geometry" />
        </mxCell>
        <mxCell id="mdJNWHgWcDSAHnfaOqPS-1" value="" style="endArrow=none;html=1;strokeWidth=4;strokeColor=#FF0000;" edge="1" parent="1">
          <mxGeometry width="50" height="50" relative="1" as="geometry">
            <mxPoint x="440" y="880" as="sourcePoint" />
            <mxPoint x="440" y="840" as="targetPoint" />
          </mxGeometry>
        </mxCell>
        <mxCell id="mdJNWHgWcDSAHnfaOqPS-2" value="" style="endArrow=none;html=1;strokeWidth=4;strokeColor=#FF0000;" edge="1" parent="1">
          <mxGeometry width="50" height="50" relative="1" as="geometry">
            <mxPoint x="439.84" y="930" as="sourcePoint" />
            <mxPoint x="439.84" y="890" as="targetPoint" />
          </mxGeometry>
        </mxCell>
        <mxCell id="mdJNWHgWcDSAHnfaOqPS-3" value="" style="endArrow=none;html=1;strokeWidth=4;strokeColor=#FF0000;" edge="1" parent="1">
          <mxGeometry width="50" height="50" relative="1" as="geometry">
            <mxPoint x="479.72" y="880" as="sourcePoint" />
            <mxPoint x="479.72" y="840" as="targetPoint" />
          </mxGeometry>
        </mxCell>
        <mxCell id="mdJNWHgWcDSAHnfaOqPS-4" value="" style="endArrow=none;html=1;strokeWidth=4;strokeColor=#FF0000;" edge="1" parent="1">
          <mxGeometry width="50" height="50" relative="1" as="geometry">
            <mxPoint x="479.86" y="930" as="sourcePoint" />
            <mxPoint x="479.86" y="890" as="targetPoint" />
          </mxGeometry>
        </mxCell>
        <mxCell id="mdJNWHgWcDSAHnfaOqPS-5" value="" style="endArrow=none;html=1;strokeWidth=4;strokeColor=#FF0000;" edge="1" parent="1">
          <mxGeometry width="50" height="50" relative="1" as="geometry">
            <mxPoint x="449.93" y="930" as="sourcePoint" />
            <mxPoint x="470.06" y="930" as="targetPoint" />
          </mxGeometry>
        </mxCell>
        <mxCell id="mdJNWHgWcDSAHnfaOqPS-6" value="" style="endArrow=none;html=1;strokeWidth=4;strokeColor=#FF0000;" edge="1" parent="1">
          <mxGeometry width="50" height="50" relative="1" as="geometry">
            <mxPoint x="449.93" y="840" as="sourcePoint" />
            <mxPoint x="470.06" y="840" as="targetPoint" />
          </mxGeometry>
        </mxCell>
        <mxCell id="mdJNWHgWcDSAHnfaOqPS-7" value="" style="endArrow=none;html=1;strokeWidth=4;strokeColor=#FF0000;rounded=0;curved=1;" edge="1" parent="1">
          <mxGeometry width="50" height="50" relative="1" as="geometry">
            <mxPoint x="449.93" y="885" as="sourcePoint" />
            <mxPoint x="470.06" y="885" as="targetPoint" />
          </mxGeometry>
        </mxCell>
        <mxCell id="mdJNWHgWcDSAHnfaOqPS-8" value="" style="endArrow=none;html=1;strokeWidth=4;strokeColor=#FF0000;" edge="1" parent="1">
          <mxGeometry width="50" height="50" relative="1" as="geometry">
            <mxPoint x="520" y="880" as="sourcePoint" />
            <mxPoint x="520" y="840" as="targetPoint" />
          </mxGeometry>
        </mxCell>
        <mxCell id="mdJNWHgWcDSAHnfaOqPS-9" value="" style="endArrow=none;html=1;strokeWidth=4;strokeColor=#FF0000;" edge="1" parent="1">
          <mxGeometry width="50" height="50" relative="1" as="geometry">
            <mxPoint x="520" y="930" as="sourcePoint" />
            <mxPoint x="520" y="890" as="targetPoint" />
          </mxGeometry>
        </mxCell>
        <mxCell id="mdJNWHgWcDSAHnfaOqPS-10" value="" style="endArrow=none;html=1;strokeWidth=4;strokeColor=#FF0000;" edge="1" parent="1">
          <mxGeometry width="50" height="50" relative="1" as="geometry">
            <mxPoint x="559.72" y="880" as="sourcePoint" />
            <mxPoint x="559.72" y="840" as="targetPoint" />
          </mxGeometry>
        </mxCell>
        <mxCell id="mdJNWHgWcDSAHnfaOqPS-11" value="" style="endArrow=none;html=1;strokeWidth=4;strokeColor=#FF0000;" edge="1" parent="1">
          <mxGeometry width="50" height="50" relative="1" as="geometry">
            <mxPoint x="559.84" y="930" as="sourcePoint" />
            <mxPoint x="559.84" y="890" as="targetPoint" />
          </mxGeometry>
        </mxCell>
        <mxCell id="mdJNWHgWcDSAHnfaOqPS-12" value="" style="endArrow=none;html=1;strokeWidth=4;strokeColor=#FF0000;" edge="1" parent="1">
          <mxGeometry width="50" height="50" relative="1" as="geometry">
            <mxPoint x="529.9300000000001" y="930" as="sourcePoint" />
            <mxPoint x="550.06" y="930" as="targetPoint" />
          </mxGeometry>
        </mxCell>
        <mxCell id="mdJNWHgWcDSAHnfaOqPS-13" value="" style="endArrow=none;html=1;strokeWidth=4;strokeColor=#FF0000;" edge="1" parent="1">
          <mxGeometry width="50" height="50" relative="1" as="geometry">
            <mxPoint x="529.9300000000001" y="840" as="sourcePoint" />
            <mxPoint x="550.06" y="840" as="targetPoint" />
          </mxGeometry>
        </mxCell>
        <mxCell id="mdJNWHgWcDSAHnfaOqPS-14" value="" style="endArrow=none;html=1;strokeWidth=4;strokeColor=#FF0000;" edge="1" parent="1">
          <mxGeometry width="50" height="50" relative="1" as="geometry">
            <mxPoint x="529.94" y="885" as="sourcePoint" />
            <mxPoint x="550.0699999999999" y="885" as="targetPoint" />
          </mxGeometry>
        </mxCell>
        <mxCell id="mdJNWHgWcDSAHnfaOqPS-15" value="" style="endArrow=none;html=1;strokeWidth=4;strokeColor=#FF0000;" edge="1" parent="1">
          <mxGeometry width="50" height="50" relative="1" as="geometry">
            <mxPoint x="600" y="880" as="sourcePoint" />
            <mxPoint x="600" y="840" as="targetPoint" />
          </mxGeometry>
        </mxCell>
        <mxCell id="mdJNWHgWcDSAHnfaOqPS-16" value="" style="endArrow=none;html=1;strokeWidth=4;strokeColor=#FF0000;" edge="1" parent="1">
          <mxGeometry width="50" height="50" relative="1" as="geometry">
            <mxPoint x="599.84" y="930" as="sourcePoint" />
            <mxPoint x="599.84" y="890" as="targetPoint" />
          </mxGeometry>
        </mxCell>
        <mxCell id="mdJNWHgWcDSAHnfaOqPS-17" value="" style="endArrow=none;html=1;strokeWidth=4;strokeColor=#FF0000;" edge="1" parent="1">
          <mxGeometry width="50" height="50" relative="1" as="geometry">
            <mxPoint x="639.72" y="880" as="sourcePoint" />
            <mxPoint x="639.72" y="840" as="targetPoint" />
          </mxGeometry>
        </mxCell>
        <mxCell id="mdJNWHgWcDSAHnfaOqPS-18" value="" style="endArrow=none;html=1;strokeWidth=4;strokeColor=#FF0000;" edge="1" parent="1">
          <mxGeometry width="50" height="50" relative="1" as="geometry">
            <mxPoint x="640" y="930" as="sourcePoint" />
            <mxPoint x="640" y="890" as="targetPoint" />
          </mxGeometry>
        </mxCell>
        <mxCell id="mdJNWHgWcDSAHnfaOqPS-19" value="" style="endArrow=none;html=1;strokeWidth=4;strokeColor=#FF0000;" edge="1" parent="1">
          <mxGeometry width="50" height="50" relative="1" as="geometry">
            <mxPoint x="609.9300000000001" y="930" as="sourcePoint" />
            <mxPoint x="630.06" y="930" as="targetPoint" />
          </mxGeometry>
        </mxCell>
        <mxCell id="mdJNWHgWcDSAHnfaOqPS-20" value="" style="endArrow=none;html=1;strokeWidth=4;strokeColor=#FF0000;" edge="1" parent="1">
          <mxGeometry width="50" height="50" relative="1" as="geometry">
            <mxPoint x="609.9300000000001" y="840" as="sourcePoint" />
            <mxPoint x="630.06" y="840" as="targetPoint" />
          </mxGeometry>
        </mxCell>
        <mxCell id="mdJNWHgWcDSAHnfaOqPS-22" value="" style="endArrow=none;html=1;strokeWidth=4;strokeColor=#FF0000;" edge="1" parent="1">
          <mxGeometry width="50" height="50" relative="1" as="geometry">
            <mxPoint x="680" y="880" as="sourcePoint" />
            <mxPoint x="680" y="840" as="targetPoint" />
          </mxGeometry>
        </mxCell>
        <mxCell id="mdJNWHgWcDSAHnfaOqPS-23" value="" style="endArrow=none;html=1;strokeWidth=4;strokeColor=#FF0000;" edge="1" parent="1">
          <mxGeometry width="50" height="50" relative="1" as="geometry">
            <mxPoint x="679.84" y="930" as="sourcePoint" />
            <mxPoint x="679.84" y="890" as="targetPoint" />
          </mxGeometry>
        </mxCell>
        <mxCell id="mdJNWHgWcDSAHnfaOqPS-24" value="" style="endArrow=none;html=1;strokeWidth=4;strokeColor=#FF0000;" edge="1" parent="1">
          <mxGeometry width="50" height="50" relative="1" as="geometry">
            <mxPoint x="719.72" y="880" as="sourcePoint" />
            <mxPoint x="719.72" y="840" as="targetPoint" />
          </mxGeometry>
        </mxCell>
        <mxCell id="mdJNWHgWcDSAHnfaOqPS-25" value="" style="endArrow=none;html=1;strokeWidth=4;strokeColor=#FF0000;" edge="1" parent="1">
          <mxGeometry width="50" height="50" relative="1" as="geometry">
            <mxPoint x="720" y="930" as="sourcePoint" />
            <mxPoint x="720" y="890" as="targetPoint" />
          </mxGeometry>
        </mxCell>
        <mxCell id="mdJNWHgWcDSAHnfaOqPS-26" value="" style="endArrow=none;html=1;strokeWidth=4;strokeColor=#FF0000;" edge="1" parent="1">
          <mxGeometry width="50" height="50" relative="1" as="geometry">
            <mxPoint x="690.0000000000001" y="930" as="sourcePoint" />
            <mxPoint x="710.13" y="930" as="targetPoint" />
          </mxGeometry>
        </mxCell>
        <mxCell id="mdJNWHgWcDSAHnfaOqPS-27" value="" style="endArrow=none;html=1;strokeWidth=4;strokeColor=#FF0000;" edge="1" parent="1">
          <mxGeometry width="50" height="50" relative="1" as="geometry">
            <mxPoint x="690.0000000000001" y="840" as="sourcePoint" />
            <mxPoint x="710.13" y="840" as="targetPoint" />
          </mxGeometry>
        </mxCell>
        <mxCell id="mdJNWHgWcDSAHnfaOqPS-28" value="" style="endArrow=none;html=1;strokeWidth=4;strokeColor=#FF0000;" edge="1" parent="1">
          <mxGeometry width="50" height="50" relative="1" as="geometry">
            <mxPoint x="690.0000000000001" y="885" as="sourcePoint" />
            <mxPoint x="710.13" y="885" as="targetPoint" />
          </mxGeometry>
        </mxCell>
        <mxCell id="mdJNWHgWcDSAHnfaOqPS-30" value="" style="endArrow=none;html=1;strokeWidth=4;strokeColor=#FF0000;" edge="1" parent="1">
          <mxGeometry width="50" height="50" relative="1" as="geometry">
            <mxPoint x="609.9300000000001" y="885" as="sourcePoint" />
            <mxPoint x="630.06" y="885" as="targetPoint" />
          </mxGeometry>
        </mxCell>
        <mxCell id="mdJNWHgWcDSAHnfaOqPS-31" value="" style="endArrow=none;html=1;" edge="1" parent="1">
          <mxGeometry width="50" height="50" relative="1" as="geometry">
            <mxPoint x="500" y="1000" as="sourcePoint" />
            <mxPoint x="500" y="960" as="targetPoint" />
          </mxGeometry>
        </mxCell>
        <mxCell id="mdJNWHgWcDSAHnfaOqPS-32" value="" style="endArrow=none;html=1;" edge="1" parent="1">
          <mxGeometry width="50" height="50" relative="1" as="geometry">
            <mxPoint x="530" y="1000" as="sourcePoint" />
            <mxPoint x="530" y="960" as="targetPoint" />
          </mxGeometry>
        </mxCell>
        <mxCell id="mdJNWHgWcDSAHnfaOqPS-33" value="" style="endArrow=none;html=1;" edge="1" parent="1">
          <mxGeometry width="50" height="50" relative="1" as="geometry">
            <mxPoint x="650" y="1000" as="sourcePoint" />
            <mxPoint x="650" y="960" as="targetPoint" />
          </mxGeometry>
        </mxCell>
        <mxCell id="mdJNWHgWcDSAHnfaOqPS-34" value="" style="endArrow=none;html=1;" edge="1" parent="1">
          <mxGeometry width="50" height="50" relative="1" as="geometry">
            <mxPoint x="560" y="1000" as="sourcePoint" />
            <mxPoint x="560" y="960" as="targetPoint" />
          </mxGeometry>
        </mxCell>
        <mxCell id="mdJNWHgWcDSAHnfaOqPS-35" value="" style="endArrow=none;html=1;" edge="1" parent="1">
          <mxGeometry width="50" height="50" relative="1" as="geometry">
            <mxPoint x="590" y="1000" as="sourcePoint" />
            <mxPoint x="590" y="960" as="targetPoint" />
          </mxGeometry>
        </mxCell>
        <mxCell id="mdJNWHgWcDSAHnfaOqPS-36" value="" style="endArrow=none;html=1;" edge="1" parent="1">
          <mxGeometry width="50" height="50" relative="1" as="geometry">
            <mxPoint x="620" y="1000" as="sourcePoint" />
            <mxPoint x="620" y="960" as="targetPoint" />
          </mxGeometry>
        </mxCell>
        <mxCell id="mdJNWHgWcDSAHnfaOqPS-37" value="" style="endArrow=none;html=1;" edge="1" parent="1">
          <mxGeometry width="50" height="50" relative="1" as="geometry">
            <mxPoint x="500" y="820" as="sourcePoint" />
            <mxPoint x="500" y="780" as="targetPoint" />
          </mxGeometry>
        </mxCell>
        <mxCell id="mdJNWHgWcDSAHnfaOqPS-38" value="" style="endArrow=none;html=1;" edge="1" parent="1">
          <mxGeometry width="50" height="50" relative="1" as="geometry">
            <mxPoint x="530" y="820" as="sourcePoint" />
            <mxPoint x="530" y="780" as="targetPoint" />
          </mxGeometry>
        </mxCell>
        <mxCell id="mdJNWHgWcDSAHnfaOqPS-39" value="" style="endArrow=none;html=1;" edge="1" parent="1">
          <mxGeometry width="50" height="50" relative="1" as="geometry">
            <mxPoint x="650" y="820" as="sourcePoint" />
            <mxPoint x="650" y="780" as="targetPoint" />
          </mxGeometry>
        </mxCell>
        <mxCell id="mdJNWHgWcDSAHnfaOqPS-40" value="" style="endArrow=none;html=1;" edge="1" parent="1">
          <mxGeometry width="50" height="50" relative="1" as="geometry">
            <mxPoint x="560" y="820" as="sourcePoint" />
            <mxPoint x="560" y="780" as="targetPoint" />
          </mxGeometry>
        </mxCell>
        <mxCell id="mdJNWHgWcDSAHnfaOqPS-41" value="" style="endArrow=none;html=1;" edge="1" parent="1">
          <mxGeometry width="50" height="50" relative="1" as="geometry">
            <mxPoint x="590" y="820" as="sourcePoint" />
            <mxPoint x="590" y="780" as="targetPoint" />
          </mxGeometry>
        </mxCell>
        <mxCell id="mdJNWHgWcDSAHnfaOqPS-42" value="" style="endArrow=none;html=1;" edge="1" parent="1">
          <mxGeometry width="50" height="50" relative="1" as="geometry">
            <mxPoint x="620" y="820" as="sourcePoint" />
            <mxPoint x="620" y="780" as="targetPoint" />
          </mxGeometry>
        </mxCell>
        <mxCell id="mdJNWHgWcDSAHnfaOqPS-43" value="E" style="text;html=1;strokeColor=none;fillColor=none;align=center;verticalAlign=middle;whiteSpace=wrap;rounded=0;fontSize=8;fontColor=#FFFFFF;fontStyle=1" vertex="1" parent="1">
          <mxGeometry x="480" y="940" width="40" height="20" as="geometry" />
        </mxCell>
        <mxCell id="mdJNWHgWcDSAHnfaOqPS-44" value="D" style="text;html=1;strokeColor=none;fillColor=none;align=center;verticalAlign=middle;whiteSpace=wrap;rounded=0;fontSize=8;fontColor=#FFFFFF;fontStyle=1" vertex="1" parent="1">
          <mxGeometry x="510" y="940" width="40" height="20" as="geometry" />
        </mxCell>
        <mxCell id="mdJNWHgWcDSAHnfaOqPS-45" value="DP" style="text;html=1;strokeColor=none;fillColor=none;align=center;verticalAlign=middle;whiteSpace=wrap;rounded=0;fontSize=8;fontColor=#FFFFFF;fontStyle=1" vertex="1" parent="1">
          <mxGeometry x="540" y="940" width="40" height="20" as="geometry" />
        </mxCell>
        <mxCell id="mdJNWHgWcDSAHnfaOqPS-46" value="C" style="text;html=1;strokeColor=none;fillColor=none;align=center;verticalAlign=middle;whiteSpace=wrap;rounded=0;fontSize=8;fontColor=#FFFFFF;fontStyle=1" vertex="1" parent="1">
          <mxGeometry x="570" y="940" width="40" height="20" as="geometry" />
        </mxCell>
        <mxCell id="mdJNWHgWcDSAHnfaOqPS-47" value="G" style="text;html=1;strokeColor=none;fillColor=none;align=center;verticalAlign=middle;whiteSpace=wrap;rounded=0;fontSize=8;fontColor=#FFFFFF;fontStyle=1" vertex="1" parent="1">
          <mxGeometry x="600" y="940" width="40" height="20" as="geometry" />
        </mxCell>
        <mxCell id="mdJNWHgWcDSAHnfaOqPS-48" value="D1" style="text;html=1;strokeColor=none;fillColor=none;align=center;verticalAlign=middle;whiteSpace=wrap;rounded=0;fontSize=8;fontColor=#FFFFFF;fontStyle=1" vertex="1" parent="1">
          <mxGeometry x="630" y="940" width="40" height="20" as="geometry" />
        </mxCell>
        <mxCell id="mdJNWHgWcDSAHnfaOqPS-49" value="D4" style="text;html=1;align=center;verticalAlign=middle;whiteSpace=wrap;rounded=0;fontSize=8;fontStyle=1;fontColor=#FFFFFF;" vertex="1" parent="1">
          <mxGeometry x="480" y="822" width="40" height="10" as="geometry" />
        </mxCell>
        <mxCell id="mdJNWHgWcDSAHnfaOqPS-50" value="A" style="text;html=1;align=center;verticalAlign=middle;whiteSpace=wrap;rounded=0;fontSize=8;fontStyle=1;fontColor=#FFFFFF;" vertex="1" parent="1">
          <mxGeometry x="510" y="822" width="40" height="10" as="geometry" />
        </mxCell>
        <mxCell id="mdJNWHgWcDSAHnfaOqPS-51" value="F" style="text;html=1;align=center;verticalAlign=middle;whiteSpace=wrap;rounded=0;fontSize=8;fontStyle=1;fontColor=#FFFFFF;" vertex="1" parent="1">
          <mxGeometry x="540" y="822" width="40" height="10" as="geometry" />
        </mxCell>
        <mxCell id="mdJNWHgWcDSAHnfaOqPS-52" value="D3" style="text;html=1;strokeColor=none;fillColor=none;align=center;verticalAlign=middle;whiteSpace=wrap;rounded=0;fontSize=8;fontColor=#FFFFFF;fontStyle=1" vertex="1" parent="1">
          <mxGeometry x="570" y="822" width="40" height="10" as="geometry" />
        </mxCell>
        <mxCell id="mdJNWHgWcDSAHnfaOqPS-53" value="D2" style="text;html=1;strokeColor=none;fillColor=none;align=center;verticalAlign=middle;whiteSpace=wrap;rounded=0;fontSize=8;fontColor=#FFFFFF;fontStyle=1" vertex="1" parent="1">
          <mxGeometry x="600" y="822" width="40" height="10" as="geometry" />
        </mxCell>
        <mxCell id="mdJNWHgWcDSAHnfaOqPS-54" value="B" style="text;html=1;strokeColor=none;fillColor=none;align=center;verticalAlign=middle;whiteSpace=wrap;rounded=0;fontSize=8;fontColor=#FFFFFF;fontStyle=1" vertex="1" parent="1">
          <mxGeometry x="630" y="822" width="40" height="10" as="geometry" />
        </mxCell>
        <mxCell id="mdJNWHgWcDSAHnfaOqPS-58" style="edgeStyle=orthogonalEdgeStyle;rounded=0;orthogonalLoop=1;jettySize=auto;html=1;exitX=0;exitY=0.5;exitDx=0;exitDy=0;entryX=0;entryY=0.5;entryDx=0;entryDy=0;" edge="1" parent="1" target="mdJNWHgWcDSAHnfaOqPS-57">
          <mxGeometry relative="1" as="geometry">
            <mxPoint x="620" y="1000" as="sourcePoint" />
            <Array as="points">
              <mxPoint x="620" y="1070" />
            </Array>
          </mxGeometry>
        </mxCell>
        <mxCell id="mdJNWHgWcDSAHnfaOqPS-57" value="&lt;font face=&quot;Comic Sans MS&quot;&gt;&lt;span style=&quot;font-size: 8px&quot;&gt;PIN-C6&lt;/span&gt;&lt;/font&gt;" style="rounded=1;whiteSpace=wrap;html=1;strokeWidth=1;fontSize=5;fillColor=#fff2cc;gradientColor=#ffd966;" vertex="1" parent="1">
          <mxGeometry x="800" y="1060" width="50" height="20" as="geometry" />
        </mxCell>
        <mxCell id="mdJNWHgWcDSAHnfaOqPS-60" style="edgeStyle=orthogonalEdgeStyle;rounded=0;orthogonalLoop=1;jettySize=auto;html=1;exitX=0;exitY=0.5;exitDx=0;exitDy=0;entryX=0;entryY=0.5;entryDx=0;entryDy=0;" edge="1" parent="1" target="mdJNWHgWcDSAHnfaOqPS-59">
          <mxGeometry relative="1" as="geometry">
            <mxPoint x="590" y="1000" as="sourcePoint" />
            <Array as="points">
              <mxPoint x="590" y="1110" />
            </Array>
          </mxGeometry>
        </mxCell>
        <mxCell id="mdJNWHgWcDSAHnfaOqPS-59" value="&lt;font face=&quot;Comic Sans MS&quot;&gt;&lt;span style=&quot;font-size: 8px&quot;&gt;PIN-C5&lt;/span&gt;&lt;/font&gt;" style="rounded=1;whiteSpace=wrap;html=1;strokeWidth=1;fontSize=5;fillColor=#fff2cc;gradientColor=#ffd966;" vertex="1" parent="1">
          <mxGeometry x="800" y="1100" width="50" height="20" as="geometry" />
        </mxCell>
        <mxCell id="mdJNWHgWcDSAHnfaOqPS-63" style="edgeStyle=orthogonalEdgeStyle;rounded=0;orthogonalLoop=1;jettySize=auto;html=1;exitX=0;exitY=0.5;exitDx=0;exitDy=0;entryX=0;entryY=0.5;entryDx=0;entryDy=0;" edge="1" parent="1" target="mdJNWHgWcDSAHnfaOqPS-62">
          <mxGeometry relative="1" as="geometry">
            <mxPoint x="560" y="1000" as="sourcePoint" />
            <Array as="points">
              <mxPoint x="560" y="1150" />
            </Array>
          </mxGeometry>
        </mxCell>
        <mxCell id="mdJNWHgWcDSAHnfaOqPS-62" value="&lt;font face=&quot;Comic Sans MS&quot;&gt;&lt;span style=&quot;font-size: 8px&quot;&gt;PIN-A12&lt;/span&gt;&lt;/font&gt;" style="rounded=1;whiteSpace=wrap;html=1;strokeWidth=1;fontSize=5;fillColor=#fff2cc;gradientColor=#ffd966;" vertex="1" parent="1">
          <mxGeometry x="800" y="1140" width="50" height="20" as="geometry" />
        </mxCell>
        <mxCell id="mdJNWHgWcDSAHnfaOqPS-65" style="edgeStyle=orthogonalEdgeStyle;rounded=0;orthogonalLoop=1;jettySize=auto;html=1;exitX=0;exitY=0.5;exitDx=0;exitDy=0;entryX=0;entryY=0.5;entryDx=0;entryDy=0;" edge="1" parent="1" target="mdJNWHgWcDSAHnfaOqPS-64">
          <mxGeometry relative="1" as="geometry">
            <mxPoint x="530" y="1000" as="sourcePoint" />
            <Array as="points">
              <mxPoint x="530" y="1190" />
            </Array>
          </mxGeometry>
        </mxCell>
        <mxCell id="mdJNWHgWcDSAHnfaOqPS-64" value="&lt;font face=&quot;Comic Sans MS&quot;&gt;&lt;span style=&quot;font-size: 8px&quot;&gt;PIN-A11&lt;/span&gt;&lt;/font&gt;" style="rounded=1;whiteSpace=wrap;html=1;strokeWidth=1;fontSize=5;fillColor=#fff2cc;gradientColor=#ffd966;" vertex="1" parent="1">
          <mxGeometry x="800" y="1180" width="50" height="20" as="geometry" />
        </mxCell>
        <mxCell id="mdJNWHgWcDSAHnfaOqPS-67" style="edgeStyle=orthogonalEdgeStyle;rounded=0;orthogonalLoop=1;jettySize=auto;html=1;exitX=0;exitY=0.5;exitDx=0;exitDy=0;entryX=0;entryY=0.5;entryDx=0;entryDy=0;" edge="1" parent="1" target="mdJNWHgWcDSAHnfaOqPS-66">
          <mxGeometry relative="1" as="geometry">
            <mxPoint x="500" y="1000" as="sourcePoint" />
            <Array as="points">
              <mxPoint x="500" y="1230" />
            </Array>
          </mxGeometry>
        </mxCell>
        <mxCell id="mdJNWHgWcDSAHnfaOqPS-66" value="&lt;font face=&quot;Comic Sans MS&quot;&gt;&lt;span style=&quot;font-size: 8px&quot;&gt;PIN-B12&lt;/span&gt;&lt;/font&gt;" style="rounded=1;whiteSpace=wrap;html=1;strokeWidth=1;fontSize=5;fillColor=#fff2cc;gradientColor=#ffd966;" vertex="1" parent="1">
          <mxGeometry x="800" y="1220" width="50" height="20" as="geometry" />
        </mxCell>
        <mxCell id="mdJNWHgWcDSAHnfaOqPS-79" style="edgeStyle=orthogonalEdgeStyle;rounded=0;orthogonalLoop=1;jettySize=auto;html=1;exitX=0;exitY=0.5;exitDx=0;exitDy=0;entryX=0;entryY=0.5;entryDx=0;entryDy=0;" edge="1" parent="1" target="mdJNWHgWcDSAHnfaOqPS-68">
          <mxGeometry relative="1" as="geometry">
            <mxPoint x="500" y="780" as="sourcePoint" />
            <Array as="points">
              <mxPoint x="500" y="550" />
            </Array>
          </mxGeometry>
        </mxCell>
        <mxCell id="mdJNWHgWcDSAHnfaOqPS-68" value="&lt;font face=&quot;Comic Sans MS&quot;&gt;&lt;span style=&quot;font-size: 8px&quot;&gt;PIN-C8&lt;/span&gt;&lt;/font&gt;" style="rounded=1;whiteSpace=wrap;html=1;strokeWidth=1;fontSize=5;fillColor=#fff2cc;gradientColor=#ffd966;" vertex="1" parent="1">
          <mxGeometry x="800" y="540" width="50" height="20" as="geometry" />
        </mxCell>
        <mxCell id="mdJNWHgWcDSAHnfaOqPS-78" style="edgeStyle=orthogonalEdgeStyle;rounded=0;orthogonalLoop=1;jettySize=auto;html=1;exitX=0;exitY=0.5;exitDx=0;exitDy=0;entryX=0;entryY=0.5;entryDx=0;entryDy=0;" edge="1" parent="1" target="mdJNWHgWcDSAHnfaOqPS-69">
          <mxGeometry relative="1" as="geometry">
            <mxPoint x="530" y="780" as="sourcePoint" />
            <Array as="points">
              <mxPoint x="530" y="590" />
            </Array>
          </mxGeometry>
        </mxCell>
        <mxCell id="mdJNWHgWcDSAHnfaOqPS-69" value="&lt;font face=&quot;Comic Sans MS&quot;&gt;&lt;span style=&quot;font-size: 8px&quot;&gt;PIN-B13&lt;/span&gt;&lt;/font&gt;" style="rounded=1;whiteSpace=wrap;html=1;strokeWidth=1;fontSize=5;fillColor=#fff2cc;gradientColor=#ffd966;" vertex="1" parent="1">
          <mxGeometry x="800" y="580" width="50" height="20" as="geometry" />
        </mxCell>
        <mxCell id="mdJNWHgWcDSAHnfaOqPS-77" style="edgeStyle=orthogonalEdgeStyle;rounded=0;orthogonalLoop=1;jettySize=auto;html=1;exitX=0;exitY=0.5;exitDx=0;exitDy=0;entryX=0;entryY=0.5;entryDx=0;entryDy=0;" edge="1" parent="1" target="mdJNWHgWcDSAHnfaOqPS-70">
          <mxGeometry relative="1" as="geometry">
            <mxPoint x="560" y="790" as="sourcePoint" />
            <Array as="points">
              <mxPoint x="560" y="630" />
            </Array>
          </mxGeometry>
        </mxCell>
        <mxCell id="mdJNWHgWcDSAHnfaOqPS-70" value="&lt;font face=&quot;Comic Sans MS&quot;&gt;&lt;span style=&quot;font-size: 8px&quot;&gt;PIN-B14&lt;/span&gt;&lt;/font&gt;" style="rounded=1;whiteSpace=wrap;html=1;strokeWidth=1;fontSize=5;fillColor=#fff2cc;gradientColor=#ffd966;" vertex="1" parent="1">
          <mxGeometry x="800" y="620" width="50" height="20" as="geometry" />
        </mxCell>
        <mxCell id="mdJNWHgWcDSAHnfaOqPS-76" style="edgeStyle=orthogonalEdgeStyle;rounded=0;orthogonalLoop=1;jettySize=auto;html=1;exitX=0;exitY=0.5;exitDx=0;exitDy=0;entryX=0;entryY=0.5;entryDx=0;entryDy=0;" edge="1" parent="1" target="mdJNWHgWcDSAHnfaOqPS-71">
          <mxGeometry relative="1" as="geometry">
            <mxPoint x="590" y="780" as="sourcePoint" />
            <Array as="points">
              <mxPoint x="590" y="670" />
            </Array>
          </mxGeometry>
        </mxCell>
        <mxCell id="mdJNWHgWcDSAHnfaOqPS-71" value="&lt;font face=&quot;Comic Sans MS&quot;&gt;&lt;span style=&quot;font-size: 8px&quot;&gt;PIN-B1&lt;/span&gt;&lt;/font&gt;" style="rounded=1;whiteSpace=wrap;html=1;strokeWidth=1;fontSize=5;fillColor=#fff2cc;gradientColor=#ffd966;" vertex="1" parent="1">
          <mxGeometry x="800" y="660" width="50" height="20" as="geometry" />
        </mxCell>
        <mxCell id="mdJNWHgWcDSAHnfaOqPS-75" style="edgeStyle=orthogonalEdgeStyle;rounded=0;orthogonalLoop=1;jettySize=auto;html=1;exitX=0;exitY=0.5;exitDx=0;exitDy=0;entryX=0;entryY=0.5;entryDx=0;entryDy=0;" edge="1" parent="1" target="mdJNWHgWcDSAHnfaOqPS-72">
          <mxGeometry relative="1" as="geometry">
            <mxPoint x="620" y="780" as="sourcePoint" />
            <Array as="points">
              <mxPoint x="620" y="710" />
            </Array>
          </mxGeometry>
        </mxCell>
        <mxCell id="mdJNWHgWcDSAHnfaOqPS-72" value="&lt;font face=&quot;Comic Sans MS&quot;&gt;&lt;span style=&quot;font-size: 8px&quot;&gt;PIN-B15&lt;/span&gt;&lt;/font&gt;" style="rounded=1;whiteSpace=wrap;html=1;strokeWidth=1;fontSize=5;fillColor=#fff2cc;gradientColor=#ffd966;" vertex="1" parent="1">
          <mxGeometry x="800" y="700" width="50" height="20" as="geometry" />
        </mxCell>
        <mxCell id="mdJNWHgWcDSAHnfaOqPS-74" style="edgeStyle=orthogonalEdgeStyle;rounded=0;orthogonalLoop=1;jettySize=auto;html=1;exitX=0;exitY=0.5;exitDx=0;exitDy=0;entryX=0;entryY=0.5;entryDx=0;entryDy=0;" edge="1" parent="1" target="mdJNWHgWcDSAHnfaOqPS-73">
          <mxGeometry relative="1" as="geometry">
            <mxPoint x="650" y="780" as="sourcePoint" />
            <Array as="points">
              <mxPoint x="650" y="750" />
            </Array>
          </mxGeometry>
        </mxCell>
        <mxCell id="mdJNWHgWcDSAHnfaOqPS-73" value="&lt;font face=&quot;Comic Sans MS&quot;&gt;&lt;span style=&quot;font-size: 8px&quot;&gt;PIN-B2&lt;/span&gt;&lt;/font&gt;" style="rounded=1;whiteSpace=wrap;html=1;strokeWidth=1;fontSize=5;fillColor=#fff2cc;gradientColor=#ffd966;" vertex="1" parent="1">
          <mxGeometry x="800" y="740" width="50" height="20" as="geometry" />
        </mxCell>
      </root>
    </mxGraphModel>
  </diagram>
</mxfile>
